:SAMPLES-PER-SECOND 30
:FULLY-SPECIFIED
:DEGREES
380
root  -33.9026 37.696 -1.06269 -174.247 -83.6158 172.564
RightUpLeg  -34.8978 -16.9053 -5.61756
RightLeg  69.9724 -1.61556 -5.81427
RightFoot  5.82779 0.626496 -3.8655
RightToes  0.00048216 0.542163 -0.142577
Spine  39.6541 -0.747378 3.74231
Spine1  10.9456 0.957643 -1.67043
HEad  -9.96693 -2.69781 3.00312
LeftShoulder1  10.3865 -18.4069 -41.0617
LeftArm  -15.7972 -11.2184 -25.783
LeftForeArm  7.12757 -51.0768 -13.4094
LeftHand  -0.25398 0.0180481 5.50724
RightShoulder  5.66549 11.6919 31.3304
RightArm  -9.7852 17.5008 26.5198
RightForeArm  -24.2562 49.0923 14.5458
RightHand  -0.042685 -6.02155 0.100841
LeftUpLeg  -33.901 25.5981 -7.68245
LeftLeg  20.6696 0.105444 0.375685
LeftFoot  11.9031 -1.83904 8.56999
LeftToes  1.06244e-005 4.65855e-005 -8.18506e-006
381
root  -34.3799 37.8979 -0.844544 -178.752 -83.6964 179.593
RightUpLeg  -39.5076 -17.4795 -2.33568
RightLeg  64.6136 -1.56007 -4.19074
RightFoot  2.13983 0.114921 -0.744237
RightToes  0.00048216 0.542163 -0.142577
Spine  42.4279 -1.32565 5.68165
Spine1  10.6176 1.5092 -2.8682
HEad  -12.9136 -3.74821 3.50498
LeftShoulder1  10.5922 -19.357 -40.0355
LeftArm  -16.2636 -17.6546 -26.6292
LeftForeArm  5.27812 -45.7968 -11.1657
LeftHand  -0.25398 0.0180481 5.50724
RightShoulder  5.53725 12.0075 29.7215
RightArm  -11.2473 22.4533 26.0788
RightForeArm  -24.2758 43.5729 12.0741
RightHand  -0.000248442 -3.42661 1.534
LeftUpLeg  -35.9349 25.4981 -8.27756
LeftLeg  20.33 -0.293732 0.208443
LeftFoot  12.0432 -1.89131 8.7639
LeftToes  1.06244e-005 4.65855e-005 -8.18506e-006
382
root  -34.8387 38.0896 -0.724132 176.146 -83.7992 -172.874
RightUpLeg  -42.0229 -17.3508 1.09511
RightLeg  54.573 -2.14122 -3.61907
RightFoot  -1.26244 -0.349808 3.80555
RightToes  0.00048216 0.542163 -0.142577
Spine  45.6066 -1.99293 7.00984
Spine1  10.0531 2.02626 -4.0884
HEad  -16.0692 -4.77143 2.72027
LeftShoulder1  10.9221 -20.2288 -39.7295
LeftArm  -16.533 -24.2636 -25.8886
LeftForeArm  2.77266 -40.0582 -9.23657
LeftHand  -0.25398 0.0180481 5.50724
RightShoulder  5.55354 12.443 28.8259
RightArm  -12.1568 28.0301 24.3584
RightForeArm  -24.7684 37.7038 9.98641
RightHand  0.082773 -0.710767 2.25451
LeftUpLeg  -37.8839 25.0648 -8.57963
LeftLeg  20.191 -0.456194 0.144867
LeftFoot  11.4169 -1.92841 9.21185
LeftToes  1.06244e-005 4.65855e-005 -8.18506e-006
383
root  -35.3162 38.2342 -0.713461 170.315 -84.5644 -164.959
RightUpLeg  -42.2237 -18.0628 4.57422
RightLeg  40.6534 -2.0767 -2.30024
RightFoot  -2.22556 -0.493549 5.89208
RightToes  0.00048216 0.542163 -0.142577
Spine  48.9708 -2.77211 7.66623
Spine1  9.46647 1.85281 -4.27997
HEad  -19.3242 -5.44778 1.59338
LeftShoulder1  11.0155 -20.9554 -38.7794
LeftArm  -17.7132 -30.0916 -24.7799
LeftForeArm  0.827273 -35.2566 -7.88249
LeftHand  -0.25398 0.0180481 5.50724
RightShoulder  5.65769 12.9589 28.3529
RightArm  -12.7808 34.2337 21.8653
RightForeArm  -25.6226 32.0687 8.33458
RightHand  0.155154 1.43571 2.49726
LeftUpLeg  -39.5085 24.9261 -9.0993
LeftLeg  20.2199 -1.25504 -0.182544
LeftFoot  10.4208 -1.85405 9.2898
LeftToes  1.06244e-005 4.65855e-005 -8.18506e-006
384
root  -35.8276 38.2307 -0.869443 165.379 -86.4589 -157.895
RightUpLeg  -41.8309 -19.6351 7.6172
RightLeg  27.1653 0.253289 -0.0817006
RightFoot  1.04892 -0.410451 4.04653
RightToes  0.00048216 0.542163 -0.142577
Spine  51.8109 -3.34214 7.53543
Spine1  9.13361 0.990587 -3.09221
HEad  -22.0478 -5.80872 1.49863
LeftShoulder1  10.8042 -21.8206 -36.4776
LeftArm  -20.8838 -34.6186 -24.3422
LeftForeArm  0.595307 -32.0737 -7.03049
LeftHand  -0.25398 0.0180481 5.50724
RightShoulder  5.68627 13.4326 27.5348
RightArm  -14.0898 40.0737 19.0538
RightForeArm  -26.2112 27.4286 7.14327
RightHand  0.221363 2.8797 2.83716
LeftUpLeg  -41.6922 24.455 -10.3354
LeftLeg  20.9762 -2.82396 -0.868494
LeftFoot  9.87109 -1.80971 9.3194
LeftToes  1.06244e-005 4.65855e-005 -8.18506e-006
385
root  -36.3385 38.1177 -1.11823 141.86 -88.5929 -131.948
RightUpLeg  -43.3294 -19.9137 9.28642
RightLeg  20.9728 1.98865 0.656365
RightFoot  6.39551 0.24418 -1.2527
RightToes  0.00048216 0.542163 -0.142577
Spine  53.7149 -3.63468 7.55429
Spine1  9.39404 0.162528 -1.49013
HEad  -24.382 -6.54231 2.27826
LeftShoulder1  10.6354 -23.0836 -33.8351
LeftArm  -25.385 -38.6355 -23.8057
LeftForeArm  1.44955 -29.8508 -6.41936
LeftHand  -0.25398 0.0180481 5.50724
RightShoulder  5.57681 13.767 26.1993
RightArm  -17.3321 44.5905 15.5173
RightForeArm  -26.5293 24.3253 6.43607
RightHand  0.287001 3.66272 3.36331
LeftUpLeg  -44.5393 22.9309 -11.572
LeftLeg  22.5429 -3.87902 -1.43552
LeftFoot  9.24496 -1.79142 9.52956
LeftToes  1.06244e-005 4.65855e-005 -8.18506e-006
386
root  -36.8212 37.9756 -1.33032 68.853 -89.3115 -56.3637
RightUpLeg  -46.8584 -18.491 9.49901
RightLeg  22.9673 0.561543 0.018172
RightFoot  8.79021 1.21786 -6.59822
RightToes  0.00048216 0.542163 -0.142577
Spine  55.7757 -4.07208 8.31738
Spine1  8.96383 -0.107885 -0.921422
HEad  -26.639 -8.01914 2.86508
LeftShoulder1  10.6393 -24.3837 -31.956
LeftArm  -29.4487 -42.4865 -22.0232
LeftForeArm  1.82687 -27.9268 -5.93274
LeftHand  -0.25398 0.0180481 5.50724
RightShoulder  5.35743 13.8105 24.7914
RightArm  -22.1532 47.6507 11.4586
RightForeArm  -27.021 22.7077 6.24488
RightHand  0.303579 3.86753 3.47405
LeftUpLeg  -47.5726 20.9509 -12.0936
LeftLeg  24.5694 -3.81132 -1.56779
LeftFoot  7.91957 -1.66752 9.5147
LeftToes  1.06244e-005 4.65855e-005 -8.18506e-006
387
root  -37.3267 37.8057 -1.50165 32.8109 -88.5651 -17.6528
RightUpLeg  -50.8054 -18.2221 10.2083
RightLeg  26.8658 -0.809964 -0.668848
RightFoot  7.53709 1.48482 -8.58261
RightToes  0.00048216 0.542163 -0.142577
Spine  58.2891 -4.70549 8.94263
Spine1  7.8886 0.0282761 -1.35262
HEad  -29.0874 -9.36737 2.97775
LeftShoulder1  10.596 -25.1472 -30.7627
LeftArm  -33.1538 -46.1539 -18.8353
LeftForeArm  1.325 -26.2731 -5.57247
LeftHand  -0.25398 0.0180481 5.50724
RightShoulder  5.03924 13.6753 23.0998
RightArm  -27.7784 50.3451 7.81469
RightForeArm  -27.3453 21.7016 6.29592
RightHand  0.254522 3.94706 2.83173
LeftUpLeg  -50.8549 19.5716 -12.3614
LeftLeg  26.9782 -3.5449 -1.62473
LeftFoot  6.28706 -1.46265 9.16356
LeftToes  1.06244e-005 4.65855e-005 -8.18506e-006
388
root  -37.8716 37.6421 -1.69127 38.6516 -88.166 -20.5523
RightUpLeg  -54.5923 -19.2391 12.4414
RightLeg  28.8748 -0.0659052 -0.275727
RightFoot  5.63876 1.28835 -8.35147
RightToes  0.00048216 0.542163 -0.142577
Spine  60.876 -4.97375 8.91375
Spine1  6.43086 0.209125 -1.72249
HEad  -31.1619 -9.54302 3.34942
LeftShoulder1  10.3959 -25.4305 -29.6891
LeftArm  -37.598 -49.0557 -14.7466
LeftForeArm  0.663279 -25.2298 -5.36948
LeftHand  -0.25398 0.0180481 5.50724
RightShoulder  4.68556 13.5185 21.1836
RightArm  -33.8123 53.0635 4.87437
RightForeArm  -26.5231 20.7398 6.28172
RightHand  0.204768 4.41038 2.06551
LeftUpLeg  -54.5676 19.102 -12.7691
LeftLeg  29.3461 -3.72795 -1.9252
LeftFoot  5.0534 -1.31592 8.90377
LeftToes  1.06244e-005 4.65855e-005 -8.18506e-006
389
root  -38.4275 37.4988 -1.91338 47.1967 -87.9778 -25.9882
RightUpLeg  -58.5333 -20.115 15.4213
RightLeg  30.2512 1.61741 0.777951
RightFoot  4.91419 1.32958 -9.04764
RightToes  0.00048216 0.542163 -0.142577
Spine  62.755 -4.72764 8.69697
Spine1  5.65998 0.492329 -1.96477
HEad  -32.8347 -8.92603 4.43683
LeftShoulder1  10.1733 -26.129 -28.0543
LeftArm  -43.554 -51.1161 -10.2805
LeftForeArm  0.737362 -24.673 -5.24102
LeftHand  -0.25398 0.0180481 5.50724
RightShoulder  4.41935 13.3519 19.7847
RightArm  -40.7295 55.2362 1.25279
RightForeArm  -24.8174 19.9964 6.14239
RightHand  0.196082 5.30693 1.72671
LeftUpLeg  -58.4215 18.8468 -13.1615
LeftLeg  31.5141 -3.82208 -2.1755
LeftFoot  4.01283 -1.22832 8.91238
LeftToes  1.06244e-005 4.65855e-005 -8.18506e-006
390
root  -38.9724 37.3587 -2.12453 50.3998 -87.8287 -26.2699
RightUpLeg  -62.3232 -20.1312 17.5879
RightLeg  32.4652 2.22907 1.2702
RightFoot  4.31879 1.50852 -10.7182
RightToes  0.00048216 0.542163 -0.142577
Spine  63.7639 -4.41619 8.65744
Spine1  6.26245 0.989571 -2.50278
HEad  -34.7453 -8.70546 5.53191
LeftShoulder1  9.9365 -27.4688 -25.6799
LeftArm  -50.7258 -52.8103 -5.82927
LeftForeArm  1.65103 -24.2809 -5.107
LeftHand  -0.25398 0.0180481 5.50724
RightShoulder  4.23985 13.1647 18.9461
RightArm  -48.3901 56.4908 -3.96883
RightForeArm  -23.6658 19.709 5.93827
RightHand  0.178282 6.41809 1.32127
LeftUpLeg  -61.7843 18.0798 -13.272
LeftLeg  33.472 -3.23813 -1.9465
LeftFoot  2.82943 -1.11608 8.81953
LeftToes  1.06244e-005 4.65855e-005 -8.18506e-006
391
root  -39.5033 37.2496 -2.2976 49.3694 -87.6887 -22.7254
RightUpLeg  -65.2274 -19.5916 18.622
RightLeg  34.503 1.79591 1.06732
RightFoot  2.98674 1.46558 -11.4381
RightToes  0.00048216 0.542163 -0.142577
Spine  66.0469 -4.20861 8.27461
Spine1  4.51405 1.24936 -2.64143
HEad  -35.4852 -8.7068 5.53352
LeftShoulder1  9.89869 -28.0757 -24.9021
LeftArm  -55.8685 -53.8146 -1.51305
LeftForeArm  1.70148 -24.067 -5.05751
LeftHand  -0.25398 0.0180481 5.50724
RightShoulder  4.14856 13.2558 18.2072
RightArm  -53.2428 56.8711 -8.20254
RightForeArm  -23.2468 19.8241 5.82386
RightHand  0.112501 7.49183 0.544258
LeftUpLeg  -64.2975 17.0032 -13.0793
LeftLeg  34.9624 -2.31935 -1.38304
LeftFoot  1.74801 -0.978056 8.41552
LeftToes  1.06244e-005 4.65855e-005 -8.18506e-006
392
root  -40.0377 37.176 -2.4584 46.8885 -87.5956 -17.8984
RightUpLeg  -67.5418 -18.9205 19.3135
RightLeg  35.7281 1.39238 0.811865
RightFoot  1.62512 1.31094 -11.3903
RightToes  0.00048216 0.542163 -0.142577
Spine  68.3005 -3.95838 7.85085
Spine1  2.78017 1.44384 -2.5478
HEad  -35.8554 -8.97254 5.2775
LeftShoulder1  9.94748 -28.4651 -24.6529
LeftArm  -60.7565 -54.6889 2.85009
LeftForeArm  1.44568 -23.7714 -5.00547
LeftHand  -0.25398 0.0180481 5.50724
RightShoulder  4.07867 13.3712 17.5746
RightArm  -57.7811 56.8992 -12.4096
RightForeArm  -21.5771 20.0007 5.67277
RightHand  0.118934 8.20922 0.52503
LeftUpLeg  -66.4046 16.1802 -13.037
LeftLeg  36.0009 -1.73277 -0.988032
LeftFoot  0.846097 -0.857755 7.97329
LeftToes  1.06244e-005 4.65855e-005 -8.18506e-006
